# xmcd
# 
# Track frame offsets:
#     193
#     21341
#     39130
#     50343
#     71184
#     85735
#     106754
#     129396
#     157379
#     176097
#     194655
#     215210
#     229610
#     250834
#     270309
#     294303
# 
# Disc length: 4142
# 
# Revision: 1
# Processed by: cddbd v1.5.2PL0 Copyright (c) Steve Scherf et al.
# Submitted via: fre:ac v1.0.31
# 
DISCID=e6102c10
DTITLE=Peter Tosh - Legalize It Disc 1
DYEAR=2011
DGENRE=Reggae
TTITLE0=Legalize It
TTITLE1=Burial
TTITLE2=Whatcha Gonna Do
TTITLE3=No Sympathy
TTITLE4=Why Must I Cry
TTITLE5=Igziabeher (Let Jah Be Praised)
TTITLE6=Ketchy Shuby
TTITLE7=Till Your Well Runs Dry
TTITLE8=Brand New Second Hand
TTITLE9=Legalize It [Demo]
TTITLE10=No Sympathy [Demo]
TTITLE11=Why Must I Cry [Demo]
TTITLE12=Igziabeher (Let Jah Be Praised) [Demo]
TTITLE13=Ketchy Shuby [Demo]
TTITLE14=Till Your Well Runs Dry [Demo]
TTITLE15=Brand New Second Hand [Demo]
EXTD=
EXTT0=
EXTT1=
EXTT2=
EXTT3=
EXTT4=
EXTT5=
EXTT6=
EXTT7=
EXTT8=
EXTT9=
EXTT10=
EXTT11=
EXTT12=
EXTT13=
EXTT14=
EXTT15=
PLAYORDER=
